<svg xmlns="http://www.w3.org/2000/svg" viewBox="0 0 120 120">
  <!-- Background with Mental Load theme colors -->
  <rect width="120" height="120" rx="22" fill="#faf6f4"/>
  
  <!-- Gradient background circle -->
  <defs>
    <linearGradient id="bgGradient" x1="0%" y1="0%" x2="100%" y2="100%">
      <stop offset="0%" style="stop-color:#ff3c00;stop-opacity:0.1"/>
      <stop offset="100%" style="stop-color:#431a00;stop-opacity:0.1"/>
    </linearGradient>
  </defs>
  <circle cx="60" cy="60" r="45" fill="url(#bgGradient)"/>
  
  <!-- Construction/tools theme -->
  <!-- Gear/cog icon -->
  <g transform="translate(60,60)">
    <!-- Main gear -->
    <circle cx="0" cy="0" r="18" fill="#ff3c00" stroke="#431a00" stroke-width="2"/>
    <circle cx="0" cy="0" r="8" fill="#faf6f4"/>
    
    <!-- Gear teeth -->
    <g fill="#ff3c00" stroke="#431a00" stroke-width="1">
      <rect x="-2" y="-24" width="4" height="6" rx="1"/>
      <rect x="-2" y="18" width="4" height="6" rx="1"/>
      <rect x="18" y="-2" width="6" height="4" rx="1"/>
      <rect x="-24" y="-2" width="6" height="4" rx="1"/>
      
      <!-- Diagonal teeth -->
      <g transform="rotate(45)">
        <rect x="-2" y="-24" width="4" height="6" rx="1"/>
        <rect x="-2" y="18" width="4" height="6" rx="1"/>
        <rect x="18" y="-2" width="6" height="4" rx="1"/>
        <rect x="-24" y="-2" width="6" height="4" rx="1"/>
      </g>
    </g>
  </g>
  
  <!-- Small progress dots -->
  <g fill="#ff3c00" opacity="0.6">
    <circle cx="30" cy="30" r="3"/>
    <circle cx="90" cy="30" r="3" opacity="0.4"/>
    <circle cx="30" cy="90" r="3" opacity="0.8"/>
  </g>
  
  <!-- "WIP" text or hammer icon -->
  <g transform="translate(85,85)">
    <!-- Small hammer icon -->
    <g fill="#431a00" opacity="0.7">
      <rect x="0" y="0" width="12" height="3" rx="1"/>
      <rect x="8" y="-2" width="3" height="7" rx="1"/>
    </g>
  </g>
</svg> 